<svg width="14" height="10" viewBox="0 0 14 10" fill="none" xmlns="http://www.w3.org/2000/svg">
<path d="M6.99996 7.05165C8.28862 7.05165 9.33329 6.00698 9.33329 4.71831C9.33329 3.42965 8.28862 2.38498 6.99996 2.38498C5.71129 2.38498 4.66663 3.42965 4.66663 4.71831C4.66663 6.00698 5.71129 7.05165 6.99996 7.05165Z" stroke="#34445C"/>
<path d="M12.4587 4.00766C12.7173 4.32232 12.8467 4.47899 12.8467 4.71832C12.8467 4.95766 12.7173 5.11432 12.4587 5.42899C11.512 6.57832 9.42399 8.71832 6.99999 8.71832C4.57599 8.71832 2.48799 6.57832 1.54132 5.42899C1.28265 5.11432 1.15332 4.95766 1.15332 4.71832C1.15332 4.47899 1.28265 4.32232 1.54132 4.00766C2.48799 2.85832 4.57599 0.718323 6.99999 0.718323C9.42399 0.718323 11.512 2.85832 12.4587 4.00766Z" stroke="#34445C"/>
</svg>
