<svg width="19" height="19" viewBox="0 0 19 19" fill="none" xmlns="http://www.w3.org/2000/svg">
<path d="M18.4857 10.796C18.4306 8.8764 18.3409 6.9568 18.2076 5.03492C17.6443 0.5957 14.5247 0.161204 10.7177 0.53133C9.33145 0.597999 7.9268 0.453168 6.52906 0.579608C5.31293 0.641678 4.01865 0.699152 2.94965 1.35435C1.791 2.03253 1.18637 3.28084 0.951882 4.56135C0.740384 5.63493 0.56107 6.70623 0.549575 7.8051C0.457618 9.23735 0.508193 10.6719 0.632336 12.1041C0.733488 13.3524 0.853043 14.6099 1.31741 15.7847C1.81167 16.9801 2.79332 17.7181 3.93128 18.1687C4.88074 18.5457 5.93823 18.7204 6.91758 18.794C7.17276 18.8951 7.09231 18.571 7.113 18.4192C7.20954 16.8054 7.29231 15.1938 7.34979 13.5777C7.33828 13.5777 7.32909 13.5777 7.31758 13.5777C7.25783 13.2168 7.46013 11.9685 7.17966 11.8282C6.64861 11.8121 5.5888 12.0627 5.54744 11.288C5.63479 10.573 5.15892 8.52237 6.2417 8.52467C6.4647 8.4741 7.19805 8.57526 7.26701 8.37523C7.35897 7.45109 7.43023 6.51313 7.86244 5.67171C8.36361 4.51536 9.6418 4.04409 10.828 4.0257C11.4625 4.08545 13.3247 3.84867 13.235 4.82341C13.1132 5.43723 13.3477 7.21658 12.5453 7.29705C11.7545 7.38671 10.5729 7.52465 10.9798 8.62123C11.0304 8.94767 12.5108 8.73158 12.8672 8.82583C13.7707 8.87871 13.2925 9.99828 13.281 10.5707C13.1637 10.9569 13.2143 11.6328 12.704 11.711C12.3637 11.7868 10.7545 11.6926 10.6947 11.9478C10.6326 14.2007 10.5867 16.4537 10.5384 18.7066C10.5545 18.9204 10.9729 18.7296 11.1269 18.7595C11.3407 18.7411 11.5522 18.7778 11.7706 18.7227C12.6419 18.6445 13.55 18.6238 14.4121 18.4928C15.7018 18.2951 16.8857 17.8468 17.6673 16.5732C18.6972 14.8513 18.5708 12.7271 18.4857 10.796Z" fill="white"/>
</svg>
