<svg width="19" height="19" viewBox="0 0 19 19" fill="none" xmlns="http://www.w3.org/2000/svg">
<path d="M14.804 9.48481C14.8753 4.22717 12.7695 3.54669 7.96705 3.83865C4.65892 3.58347 3.36002 6.0893 3.35083 9.0526C3.17152 11.9539 4.06579 15.6206 7.6774 15.3126C12.1856 15.2321 15.0133 14.7746 14.804 9.48481ZM6.92105 0.436255C12.0844 -0.0442193 18.0616 0.696034 18.1329 7.1583C18.3145 10.1331 18.4111 13.3217 16.9535 16.0206C15.4018 18.6598 12.8155 18.5494 10.1257 18.6115C7.76015 18.7058 5.321 18.9104 3.04048 18.1356C0.716267 17.331 0.0840616 15.5769 0.134639 13.2826C0.0541774 11.3079 -0.0262865 9.33768 0.00819899 7.3606C0.123144 2.67539 2.16918 0.328206 6.92105 0.436255Z" fill="white"/>
<path d="M8.97863 11.3539C6.41072 11.2481 7.13029 7.39283 9.47289 7.51467C11.7603 8.20205 11.3902 11.2964 8.97863 11.3539Z" fill="white"/>
<path d="M9.69587 4.83644C13.3925 4.66862 13.7948 6.3951 13.7925 9.65036C13.8201 12.6045 13.2362 13.9769 10.0568 14.1448C7.46821 14.5172 4.70261 14.616 4.50261 11.2803C4.298 9.21358 3.99453 6.23876 6.2084 5.15597C7.31188 4.78127 8.59699 4.94449 9.69587 4.83644ZM8.96482 12.2872C12.7741 12.3286 13.0247 6.35601 8.98321 6.62958C5.68884 6.95144 5.35091 12.1769 8.96482 12.2872ZM11.9166 7.28249C12.9006 7.41123 12.7626 5.9445 11.866 5.98589C10.997 6.00888 11.1005 7.25949 11.9166 7.28249Z" fill="white"/>
</svg>
