<svg width="19" height="19" viewBox="0 0 19 19" fill="none" xmlns="http://www.w3.org/2000/svg">
<path fill-rule="evenodd" clip-rule="evenodd" d="M8.31991 0.471011C7.68392 0.492176 7.06479 0.51278 6.47913 0.510616C6.30608 0.528726 6.12981 0.545466 5.95153 0.562397C4.29671 0.719554 2.46883 0.893148 1.4353 2.33136C-0.257988 5.17619 -0.0584893 9.26587 0.104896 12.6152C0.118302 12.8901 0.131465 13.1599 0.14332 13.4237C0.246771 15.5662 1.58244 17.6445 3.77561 18.0881C5.74118 18.6192 7.78952 18.8629 9.82638 18.8123C14.7139 18.8675 17.491 18.1571 18.1462 12.7524C18.2404 11.3017 18.2082 9.84653 18.16 8.39131C18.1438 8.06404 18.137 7.73262 18.1302 7.39982C18.1029 6.07048 18.0752 4.71914 17.4519 3.52219C15.6378 0.227473 11.7357 0.357334 8.31991 0.471011ZM10.0772 8.84062C10.0909 9.08702 10.1085 9.40311 10.3415 9.49074L10.341 9.49024C10.4976 9.54712 10.7564 9.23179 10.9214 9.03085C10.9391 9.00921 10.9558 8.9889 10.9711 8.97052C11.4122 8.41904 11.8377 7.67903 12.1527 6.95415C12.1655 6.9257 12.1782 6.89713 12.1909 6.86852C12.3186 6.58032 12.4474 6.28942 12.7198 6.10324C12.8438 6.0042 13.3763 6.01226 13.9044 6.02025C14.0484 6.02243 14.192 6.0246 14.3269 6.0246C14.4144 6.0246 14.5115 6.02158 14.6128 6.01842C15.0769 6.00396 15.6286 5.98678 15.7449 6.24539C15.8694 6.52568 15.5479 7.09751 15.4034 7.35444L15.3981 7.36398C15.1044 7.85977 14.7946 8.26453 14.478 8.67805C14.2513 8.97423 14.0212 9.27491 13.791 9.61677C13.7733 9.64115 13.7553 9.66522 13.7374 9.68905C13.6283 9.83473 13.5256 9.97184 13.539 10.1209C13.539 10.369 13.7687 10.5931 13.9845 10.8038C14.0152 10.8337 14.0455 10.8633 14.0748 10.8926C14.2099 11.0277 14.325 11.1398 14.4291 11.2412C14.7378 11.5419 14.9502 11.7488 15.3038 12.1846C15.4929 12.421 15.8084 12.8304 15.7767 13.1142C15.7293 13.4766 15.2882 13.6026 14.6737 13.6183C14.6004 13.6213 14.5266 13.6247 14.4527 13.6281C13.7644 13.6596 13.0636 13.6916 12.5943 13.4922C12.3017 13.3701 12.0469 13.0973 11.8078 12.8414C11.7379 12.7667 11.6695 12.6934 11.6018 12.6257C11.4757 12.4679 11.3341 12.3263 11.1607 12.1529C11.1317 12.1239 11.1033 12.0928 11.0747 12.0615C10.9472 11.9222 10.815 11.7777 10.6092 11.7904C10.3098 11.806 10.2311 12.1211 10.1681 12.4362C10.1449 12.5525 10.1344 12.6838 10.1242 12.8128C10.1068 13.0331 10.0898 13.2465 10.0103 13.3657C9.6479 13.8542 7.85232 13.4917 7.44249 13.3657C5.99323 12.909 5.25322 12.0425 4.46532 10.9556C3.61441 9.79017 2.92129 8.5612 2.27554 7.15931C2.2511 7.10729 2.2225 7.05351 2.19308 6.99818C2.07085 6.76832 1.93452 6.51193 2.0235 6.24539C2.13982 5.9995 2.64947 5.99803 3.10717 5.99671C3.20681 5.99642 3.304 5.99614 3.39412 5.99335C3.9456 5.97772 4.51271 5.99335 4.82776 6.21414C4.97841 6.3184 5.06105 6.54229 5.15067 6.78509C5.1828 6.87215 5.21583 6.96164 5.25322 7.04892C5.53702 7.67903 5.91509 8.32528 6.29316 8.845C6.31318 8.87335 6.33338 8.90277 6.35392 8.93268C6.52732 9.18521 6.72525 9.47346 7.0493 9.45949C7.28522 9.42824 7.37999 8.65597 7.37999 8.07323C7.37999 7.56914 7.37999 6.95516 7.19095 6.67135C7.10454 6.53757 6.9432 6.47846 6.80341 6.42725C6.66352 6.37599 6.54521 6.33264 6.54521 6.23027C6.54521 6.08862 6.73424 5.93134 6.92328 5.83657C7.11231 5.7418 7.37999 5.69492 7.60078 5.66317C8.38817 5.61578 9.68016 5.58402 9.94784 5.93084C10.1932 6.30898 10.1466 7.01888 10.1009 7.71607C10.0762 8.09329 10.0517 8.46678 10.0739 8.78199C10.075 8.80096 10.0761 8.82056 10.0772 8.84062Z" fill="white"/>
</svg>
