<svg width="19" height="19" viewBox="0 0 19 19" fill="none" xmlns="http://www.w3.org/2000/svg">
<path d="M6.47913 0.520014C10.2103 0.533807 15.3001 -0.376564 17.4519 3.53159C18.2312 5.02819 18.0795 6.76618 18.16 8.40071C18.2082 9.85593 18.2404 11.3111 18.1462 12.7618C17.491 18.1665 14.7139 18.8769 9.82638 18.8217C7.78952 18.8723 5.74118 18.6286 3.77561 18.0975C1.58244 17.6539 0.246771 15.5756 0.14332 13.4331C-0.0130068 9.95479 -0.396927 5.41901 1.4353 2.34076C2.58017 0.747606 4.69978 0.706227 6.47913 0.520014ZM15.5392 9.20302C15.8403 3.63736 10.4747 4.77992 6.66995 4.86037C3.25377 4.95232 3.38709 7.82367 3.48365 10.4398C3.25147 13.971 5.97338 13.9296 8.68839 13.8882C12.3851 13.9066 15.9553 14.1618 15.5392 9.20302Z" fill="white"/>
<path d="M8.04925 9.44448C8.08603 9.03757 7.93202 7.81686 8.60099 8.00535C9.37699 8.19838 9.99426 8.66921 10.6729 9.08128C10.8447 9.18553 10.8637 9.43375 10.7051 9.55701C9.98869 10.1137 9.29489 10.665 8.47225 11.0445C7.93662 11.2905 8.15041 9.75943 8.04925 9.44448Z" fill="white"/>
</svg>
